<!DOCTYPE svg PUBLIC "-//W3C//DTD SVG 1.1//EN" "http://www.w3.org/Graphics/SVG/1.1/DTD/svg11.dtd">

<!-- Uploaded to: SVG Repo, www.svgrepo.com, Transformed by: SVG Repo Mixer Tools -->
<svg fill="#000000" version="1.1" id="Capa_1" xmlns="http://www.w3.org/2000/svg" xmlns:xlink="http://www.w3.org/1999/xlink" width="800px" height="800px" viewBox="-3.16 -3.16 37.96 37.96" xml:space="preserve" transform="rotate(0)">

<g id="SVGRepo_bgCarrier" stroke-width="0">

<path transform="translate(-3.16, -3.16), scale(1.18625)" d="M16,28.25737316161394C18.055346511795882,27.901572523640375,19.712924054050642,26.59740133384801,21.570102469374735,25.64770048032191C23.532974208226786,24.64395148648884,25.84987349090967,24.196009216901263,27.258539611038593,22.500120875115197C28.75437946647559,20.699284370449075,29.872446948893707,18.323198189698033,29.583831008523703,16C29.299100752579037,13.708079414065333,26.980652496218926,12.32526198566805,25.75157890601122,10.36992329359055C24.577935595383998,8.502768882128894,24.209907145773144,6.132744422330448,22.503421142076455,4.735744158905973C20.689043390057222,3.2504192326941017,18.33123425636443,2.638875318360726,16,2.3868761012951545C13.499050177223161,2.116531156105946,10.655206723104195,1.7429786847951048,8.630791074906792,3.2361557301485195C6.60758736672896,4.7284388676628115,6.683582749220984,7.7323678974656564,5.647298806867649,10.02286517930527C4.725189074620837,12.061003327497316,2.7868725099319622,13.764042888153979,2.8560770141581706,15.999999999999998C2.9250398428717737,18.22814871718716,4.955457384654544,19.80368537230258,6.010796682152192,21.767269224549324C7.104383127308446,23.80201642844516,7.255788718187267,26.53178972068678,9.192853456363075,27.790323668146012C11.13310297397141,29.0509268045962,13.720104762626221,28.652045386134223,16,28.25737316161394" fill="#fff" strokewidth="0"/>

</g>

<g id="SVGRepo_tracerCarrier" stroke-linecap="round" stroke-linejoin="round"/>

<g id="SVGRepo_iconCarrier"> <g> <g> <circle cx="7.676" cy="7.067" r="0.827"/> <path d="M21.841,4.244c-4-1.012-7.198-0.758-11.431,1.771c-0.097-0.924-2.53-3.697-5.497-1.75 C1.751,3.874,1.751,7.134,1.751,7.134S0.023,10.173,0,11.318c-0.016,0.766,0.446,0.973,0.888,1.105 c2.285-1.301,4.359-0.992,6.044-0.74c0.878,0.131,1.639,0.242,2.208,0.082c0.197-0.057,0.404,0.06,0.46,0.258 c0.056,0.197-0.06,0.404-0.257,0.461c-0.724,0.203-1.557,0.08-2.521-0.064c-1.508-0.225-3.35-0.486-5.328,0.535 c1.878,3.272,7.082,4.382,10.862,1.769c0.825,0.052,1.907,0.175,3.074,0.271c0.215,0.017,0.004,0.697-0.205,1.375 c-0.073,0.236-2.863,0.82-2.918,1.027c-0.101,0.389,2.537,0.072,2.725,0.341c0.187,0.271-0.34,1.509-0.097,2.094 c0.162,0.389,1.48-0.011,1.849-0.926c0.186-0.456-0.593-1.359-0.42-1.722c0.52-1.083,0.974-2.073,1.055-2.071 c0.541,0.017,1.08,0.018,1.604-0.007c1.092-0.05,2.146-0.152,3.122-0.237c0.124-0.011,0.332,0.425,0.552,0.933 c0.1,0.232-1.828,0.584-1.729,0.812c0.203,0.466,1.897,0.152,2.529,0.734c0.633,0.584,0.653,2.156,1.119,2.336 c0.257,0.099,1.334-0.674,1.119-1.654c-0.314-1.43-2.036-3.274-1.946-3.278c1.195-0.055,2.188,0.002,2.87,0.355 c2.53,1.309,0.682,11.047-5.643,11.535c-3.445,0.265-4.596-2.491-4.168-4.028c0.423-1.519,2.319-2.345,3.634-2.148 c1.312,0.192,1.556,1.41,0.973,2.235c-0.077,0.109-0.166,0.21-0.261,0.304c-0.226-0.229-0.538-0.371-0.884-0.371 c-0.687,0-1.242,0.557-1.242,1.242c0,0.687,0.556,1.241,1.242,1.241c0.62,0,1.13-0.455,1.223-1.052 c0.334-0.083,0.664-0.245,0.944-0.536c1.118-1.168,0.875-3.26-1.244-3.978c-2.371-0.802-5.694,0.688-5.792,3.218 c-0.097,2.529,2.224,5.496,6.221,5.268c5.935-0.342,10.204-6.504,9.965-12.192C31.421,11.026,28.847,6.015,21.841,4.244z M6.922,9.713c-1.33,0-2.408-1.078-2.408-2.408c0-1.33,1.078-2.408,2.408-2.408c1.329,0,2.407,1.078,2.407,2.408 C9.33,8.635,8.252,9.713,6.922,9.713z"/> </g> </g> </g>

</svg>