<svg xmlns="http://www.w3.org/2000/svg" version="1.1" xmlns:xlink="http://www.w3.org/1999/xlink" xmlns:svgjs="http://svgjs.dev/svgjs" width="2000" height="1276" viewBox="0 0 2000 1276"><g transform="matrix(1,0,0,1,-2.446808510638334,-2.65703074999999)"><svg viewBox="0 0 376 240" data-background-color="#97978d" preserveAspectRatio="xMidYMid meet" height="1276" width="2000" xmlns="http://www.w3.org/2000/svg" xmlns:xlink="http://www.w3.org/1999/xlink"><g id="tight-bounds" transform="matrix(1,0,0,1,0.46023999999999887,0.4997550000000075)"><svg viewBox="0 0 375.07953 239.00047000000004" height="239.00047000000004" width="375.07953"><g><svg></svg></g><g><svg viewBox="0 0 375.07953 239.00047000000004" height="239.00047000000004" width="375.07953"><g transform="matrix(1,0,0,1,-10.22024,-8.199510000000004)"><path d="M10.22 239v-230.8h375.08v230.8h-190.086l0-9.601h180.485v-211.598h-355.878l0 185.535-6.416 0 0 35.664z" fill="#ffffff" fill-rule="nonzero" stroke="none" stroke-width="1" stroke-linecap="butt" stroke-linejoin="miter" stroke-miterlimit="10" stroke-dasharray="" stroke-dashoffset="0" font-family="none" font-weight="none" font-size="none" text-anchor="none" style="mix-blend-mode: normal" data-fill-palette-color="tertiary"></path><g><path d="M55.535 222.883c1.278 0 2.463 0.359 3.554 1.076 1.091 0.717 1.948 1.855 2.572 3.414v0l-3.834 1.964c-0.312-1.091-0.926-1.948-1.843-2.572-0.923-0.624-1.899-0.935-2.927-0.936v0c-1.496 0-2.821 0.39-3.975 1.169-1.153 0.779-2.042 1.777-2.665 2.993-0.624 1.216-0.935 2.447-0.936 3.695v0c0 2.182 0.359 4.059 1.076 5.63 0.717 1.577 1.699 2.778 2.946 3.601 1.247 0.829 2.65 1.244 4.209 1.243v0c1.871 0 3.507-0.461 4.91-1.384 1.403-0.917 2.728-2.092 3.975-3.526v0l0.795 0.749c-1.528 2.338-3.139 4.106-4.836 5.302-1.702 1.203-3.785 1.805-6.247 1.805v0c-1.933 0-3.663-0.452-5.191-1.356-1.528-0.904-2.728-2.192-3.601-3.862-0.873-1.665-1.309-3.588-1.309-5.771v0c0-2.432 0.499-4.654 1.496-6.668 0.998-2.008 2.494-3.604 4.49-4.789 1.995-1.185 4.442-1.777 7.341-1.777zM77.607 222.743l0.842 0.982c-2.338 1.496-4.177 3.164-5.518 5.004-1.341 1.839-2.011 4.006-2.011 6.5v0c0 1.403 0.296 2.812 0.889 4.227 0.592 1.422 1.481 2.6 2.665 3.535 1.185 0.935 2.603 1.403 4.256 1.403v0c1.341 0 2.531-0.312 3.572-0.935 1.047-0.624 1.861-1.465 2.441-2.525 0.574-1.06 0.86-2.229 0.861-3.507v0c0-1.465-0.443-2.962-1.328-4.49-0.892-1.528-2.054-2.821-3.489-3.881-1.434-1.06-2.899-1.652-4.395-1.777v0c0.624-0.624 1.372-1.278 2.244-1.964 0.873-0.686 1.761-1.356 2.666-2.011v0c2.151 0.717 3.85 2.079 5.097 4.087 1.247 2.014 1.871 4.252 1.87 6.715v0c0 2.182-0.443 4.277-1.328 6.285-0.892 2.014-2.195 3.651-3.909 4.91-1.715 1.266-3.741 1.899-6.079 1.899v0c-1.871 0-3.595-0.461-5.172-1.384-1.571-0.917-2.809-2.17-3.713-3.76-0.904-1.59-1.356-3.351-1.356-5.284v0c0-3.398 1.007-6.344 3.021-8.838 2.008-2.494 4.633-4.224 7.874-5.191zM98.838 203.336v39.281c0 0.374 0.109 0.733 0.327 1.076 0.218 0.343 0.592 0.514 1.122 0.514v0c0.436 0 0.898-0.196 1.385-0.589 0.48-0.387 0.845-0.798 1.094-1.235v0l0.795 0.702c-0.53 1.029-1.263 1.902-2.198 2.619-0.935 0.717-1.871 1.076-2.806 1.075v0c-2.619 0-3.928-1.574-3.928-4.723v0-36.943zM117.309 222.743l0.842 0.982c-2.338 1.496-4.177 3.164-5.518 5.004-1.341 1.839-2.011 4.006-2.011 6.5v0c0 1.403 0.296 2.812 0.889 4.227 0.592 1.422 1.481 2.6 2.665 3.535 1.185 0.935 2.603 1.403 4.255 1.403v0c1.341 0 2.535-0.312 3.583-0.935 1.041-0.624 1.852-1.465 2.431-2.525 0.574-1.06 0.86-2.229 0.861-3.507v0c0-1.465-0.443-2.962-1.328-4.49-0.892-1.528-2.054-2.821-3.489-3.881-1.434-1.06-2.899-1.652-4.396-1.777v0c0.624-0.624 1.372-1.278 2.245-1.964 0.873-0.686 1.761-1.356 2.665-2.011v0c2.151 0.717 3.85 2.079 5.098 4.087 1.247 2.014 1.871 4.252 1.87 6.715v0c0 2.182-0.443 4.277-1.328 6.285-0.892 2.014-2.195 3.651-3.909 4.91-1.715 1.266-3.741 1.899-6.08 1.899v0c-1.871 0-3.591-0.461-5.162-1.384-1.577-0.917-2.818-2.17-3.722-3.76-0.904-1.59-1.356-3.351-1.357-5.284v0c0-3.398 1.004-6.344 3.012-8.838 2.014-2.494 4.642-4.224 7.884-5.191zM142.935 228.869c-1.403 1.465-2.609 3.373-3.619 5.724-1.016 2.357-1.524 4.502-1.525 6.434v0c0 1.683 0.365 3.093 1.095 4.228 0.736 1.141 1.914 1.712 3.535 1.711v0c1.309 0 2.566-0.343 3.769-1.029 1.197-0.686 2.217-1.574 3.058-2.665v0l-0.514-0.702c-0.966 0.655-1.917 0.982-2.853 0.983v0c-1.465 0-2.572-0.514-3.32-1.544-0.748-1.029-1.122-2.276-1.122-3.741v0c0-2.369 0.608-4.614 1.824-6.734 1.216-2.12 2.759-4.177 4.629-6.172v0l-0.748-0.655c-2.182 1.372-4.177 2.058-5.986 2.058v0c-1.06 0-2.026-0.477-2.899-1.431-0.873-0.948-1.543-1.998-2.011-3.152v0l-3.788 4.255c0.218 0.624 0.811 1.341 1.777 2.151v0l-3.133 6.547 1.73 0.795 3.04-6.687c0.53 0.218 0.966 0.359 1.309 0.421 0.343 0.062 0.811 0.094 1.403 0.093v0c1.528 0 2.93-0.343 4.209-1.028v0zM159.723 221.247c1.06 0 1.833 0.187 2.32 0.561 0.48 0.374 0.72 0.951 0.72 1.73v0c0 0.842-0.162 1.59-0.487 2.245-0.33 0.655-0.683 1.216-1.056 1.683-0.374 0.468-0.624 0.795-0.749 0.982v0c0.374 0.624 1.076 1.356 2.105 2.198v0c0.842 0.717 1.512 1.356 2.01 1.917 0.499 0.561 0.929 1.316 1.291 2.264 0.355 0.954 0.533 2.117 0.533 3.488v0c0 1.621-0.365 3.102-1.094 4.443-0.736 1.341-1.749 2.4-3.04 3.179-1.297 0.779-2.756 1.169-4.377 1.169v0c-0.998 0-2.089-0.212-3.273-0.636-1.185-0.418-2.058-1.016-2.619-1.795v0l3.133-4.162c0.748 0.966 1.537 1.793 2.367 2.478 0.823 0.686 1.718 1.029 2.684 1.029v0c1.341 0 2.488-0.446 3.441-1.337 0.948-0.885 1.422-1.952 1.422-3.199v0c0-0.998-0.415-1.989-1.244-2.974-0.823-0.979-1.983-2.139-3.479-3.479v0c-0.187-0.156-0.546-0.477-1.076-0.963-0.53-0.48-0.92-0.876-1.169-1.188v0l-3.273 4.816-1.496-0.982 3.741-5.19c-0.436-1.216-0.655-2.416-0.655-3.601v0c0-1.341 0.296-2.457 0.888-3.348 0.592-0.885 1.403-1.328 2.432-1.328zM159.723 223.07c-0.405 0-0.661 0.109-0.767 0.328-0.112 0.218-0.168 0.546-0.168 0.982v0c0 0.561 0.078 1.044 0.234 1.449 0.156 0.405 0.265 0.686 0.327 0.842v0c0.343-0.218 0.661-0.617 0.954-1.197 0.299-0.574 0.449-1.063 0.449-1.468v0c0-0.281-0.084-0.508-0.253-0.683-0.175-0.168-0.433-0.253-0.776-0.253z" fill="#ffffff" fill-rule="nonzero" stroke="none" stroke-width="1" stroke-linecap="butt" stroke-linejoin="miter" stroke-miterlimit="10" stroke-dasharray="" stroke-dashoffset="0" font-family="none" font-weight="none" font-size="none" text-anchor="none" style="mix-blend-mode: normal" data-fill-palette-color="secondary" id="text-1"></path></g></g><g transform="matrix(1,0,0,1,29.33176499999999,66.26774380065496)"><svg viewBox="0 0 316.416 106.46498239869014" height="106.46498239869014" width="316.416"><g><svg viewBox="0 0 316.416 106.46498239869014" height="106.46498239869014" width="316.416"><g><svg viewBox="0 0 316.416 106.46498239869014" height="106.46498239869014" width="316.416"><g><svg viewBox="0 0 316.416 106.46498239869014" height="106.46498239869014" width="316.416"><g id="textblocktransform"><svg viewBox="0 0 316.416 106.46498239869014" height="106.46498239869014" width="316.416" id="textblock"><g><svg viewBox="0 0 316.416 106.46498239869014" height="106.46498239869014" width="316.416"><g transform="matrix(1,0,0,1,0,0)"><svg width="316.416" viewBox="2.13 -32.5 122.13000000000001 41.1" height="106.46498239869014" data-palette-color="#ffffff"><path d="M12.68 0.58L12.68 0.58Q10.38 0.58 8.46 0.2 6.55-0.18 5.05-0.73 3.55-1.28 2.55-1.83L2.55-1.83 2.13-5.95Q4.05-4.8 6.66-3.94 9.28-3.08 12.35-3.08L12.35-3.08Q16.05-3.08 17.82-4.39 19.6-5.7 19.6-8.33L19.6-8.33 19.6-8.72Q19.6-10.45 18.9-11.55 18.2-12.65 16.54-13.4 14.88-14.15 12.03-14.8L12.03-14.8Q8.43-15.65 6.26-16.81 4.1-17.98 3.14-19.73 2.18-21.48 2.18-24.08L2.18-24.08 2.18-24.3Q2.18-28.23 4.75-30.36 7.33-32.5 12.55-32.5L12.55-32.5Q15.98-32.5 18.39-31.8 20.8-31.1 22.33-30.25L22.33-30.25 22.7-26.45Q20.93-27.5 18.56-28.24 16.2-28.98 13.15-28.98L13.15-28.98Q10.73-28.98 9.22-28.4 7.73-27.83 7.05-26.75 6.38-25.68 6.38-24.15L6.38-24.15 6.38-24.05Q6.38-22.5 7.04-21.4 7.7-20.3 9.36-19.5 11.03-18.7 14.1-17.95L14.1-17.95Q17.63-17.13 19.75-16.05 21.88-14.98 22.84-13.25 23.8-11.53 23.8-8.75L23.8-8.75 23.8-8.22Q23.8-3.9 21.01-1.66 18.23 0.58 12.68 0.58ZM47.85 0L43.82 0 44-5.93 43.85-6.55 43.85-14.33 43.87-15.75Q43.87-18.73 42.36-20.15 40.85-21.58 37.57-21.58L37.57-21.58Q34.95-21.58 32.76-20.83 30.57-20.08 28.87-19.07L28.87-19.07 29.25-22.53Q30.2-23.1 31.51-23.66 32.82-24.23 34.51-24.6 36.2-24.98 38.22-24.98L38.22-24.98Q40.85-24.98 42.69-24.34 44.52-23.7 45.66-22.5 46.8-21.3 47.32-19.6 47.85-17.9 47.85-15.8L47.85-15.8 47.85 0ZM35.42 0.53L35.42 0.53Q31.8 0.53 29.86-1.24 27.92-3 27.92-6.28L27.92-6.28 27.92-7Q27.92-10.38 30.01-12.04 32.1-13.7 36.65-14.35L36.65-14.35 44.37-15.45 44.6-12.5 37.15-11.43Q34.35-11.03 33.15-10.06 31.95-9.1 31.95-7.23L31.95-7.23 31.95-6.83Q31.95-4.9 33.13-3.88 34.32-2.85 36.7-2.85L36.7-2.85Q38.8-2.85 40.3-3.58 41.8-4.3 42.72-5.53 43.65-6.75 43.97-8.25L43.97-8.25 44.6-5.5 43.82-5.5Q43.47-3.9 42.51-2.53 41.55-1.15 39.82-0.31 38.1 0.53 35.42 0.53ZM62.7-3.78L65.02-3.78 62.9-2.85 70.2-24.4 74.37-24.4 62.9 8.6 58.8 8.6 62.65-2.55 64.42-1 59.82-1 51.85-24.4 56.05-24.4 62.7-3.78ZM92.34-31.95L92.34 0 88.19 0 88.19-31.95 92.34-31.95ZM108.34 0.5L108.34 0.5Q105.51 0.5 103.79-0.35 102.06-1.2 101.29-2.93 100.51-4.65 100.51-7.23L100.51-7.23 100.51-22.63 104.51-22.63 104.51-7.7Q104.51-5.3 105.61-4.16 106.71-3.03 109.31-3.03L109.31-3.03Q110.79-3.03 112.15-3.35 113.51-3.68 114.71-4.28L114.71-4.28 114.34-0.8Q113.16-0.2 111.59 0.15 110.01 0.5 108.34 0.5ZM114.09-20.8L96.51-20.8 96.51-24.05 114.46-24.05 114.09-20.8ZM104.41-23.65L100.54-23.65 100.51-30.5 104.59-31.03 104.41-23.65ZM123.89-31.95L123.41-9.83 120.04-9.83 119.56-31.95 123.89-31.95ZM121.71 0.48L121.71 0.48Q120.44 0.48 119.81-0.24 119.19-0.95 119.19-2.25L119.19-2.25 119.19-2.5Q119.19-3.78 119.81-4.48 120.44-5.18 121.71-5.18L121.71-5.18Q123.01-5.18 123.64-4.48 124.26-3.78 124.26-2.5L124.26-2.5 124.26-2.25Q124.26-0.95 123.64-0.24 123.01 0.48 121.71 0.48Z" opacity="1" transform="matrix(1,0,0,1,0,0)" fill="#ffffff" class="wordmark-text-0" data-fill-palette-color="primary" id="text-0"></path></svg></g></svg></g></svg></g></svg></g></svg></g></svg></g></svg></g></svg></g><defs></defs></svg><rect width="375.07953" height="239.00047000000004" fill="none" stroke="none" visibility="hidden"></rect></g></svg></g></svg>